<svg xmlns="http://www.w3.org/2000/svg" width="256" height="256">
<style>
  rect { fill: #5e5c64; }
  path { fill: #fff; }
  @media (prefers-color-scheme: dark) {
    rect { fill: #fff; } 
    path { fill: #5e5c64; }
  }
</style>  
  <rect width="256" height="256" ry="128"/><g transform="translate(-546.244 -247.995)"><path d="M626.364 290.355a10.706 10.706 0 0 0-7.549 3.2 10.706 10.706 0 0 0-3.053 7.61 10.706 10.706 0 0 0 3.2 7.529l34.544 33.938 34.545-33.938a10.706 10.706 0 0 0 .147-15.14 10.706 10.706 0 0 0-15.14-.125l-19.551 19.196-19.552-19.196a10.706 10.706 0 0 0-7.59-3.074zm21.517 53.532v10.706h11.355v-10.706zm42.826 0A10.683 10.683 0 0 0 680 354.593v42.825a10.683 10.683 0 0 0 10.707 10.707 10.683 10.683 0 0 0 10.706-10.707v-10.727h21.413v10.727a10.683 10.683 0 0 0 10.706 10.707 10.683 10.683 0 0 0 10.706-10.707v-42.825a10.683 10.683 0 0 0-10.706-10.706 10.683 10.683 0 0 0-10.706 10.706v10.685h-21.413v-10.685a10.683 10.683 0 0 0-10.706-10.706zm-42.826 21.412v10.707h11.355v-10.707zm0 21.413v10.706h11.355v-10.706zm0 21.413v6.754l-28.92 28.418a10.706 10.706 0 0 0-3.199 7.527 10.706 10.706 0 0 0 3.053 7.612 10.706 10.706 0 0 0 15.14.125l19.551-19.196 19.552 19.196a10.706 10.706 0 0 0 15.14-.125 10.706 10.706 0 0 0-.147-15.14l-28.815-28.313v-6.858z" style="stroke-width:2;stroke-linecap:round;-inkscape-stroke:none;paint-order:markers stroke fill"/></g></svg>
