<svg height="1080" width="1920" xmlns="http://www.w3.org/2000/svg"><defs><marker id="b" refX="0" refY="0" orient="auto" overflow="visible"><path d="m-2.308 0 3.46-2v4z" fill="#fff" fill-rule="evenodd" stroke="#fff" stroke-width=".4pt"/></marker><marker id="c" refX="0" refY="0" orient="auto" overflow="visible"><path d="m2.308 0-3.46 2v-4z" fill="#fff" fill-rule="evenodd" stroke="#fff" stroke-width=".4pt"/></marker><marker id="d" refX="0" refY="0" orient="auto" overflow="visible"><path d="m2.308 0-3.46 2v-4z" fill="#fff" fill-rule="evenodd" stroke="#fff" stroke-width=".4pt"/></marker><marker id="e" refX="0" refY="0" orient="auto" overflow="visible"><path d="m2.308 0-3.46 2v-4z" fill="#fff" fill-rule="evenodd" stroke="#fff" stroke-width=".4pt"/></marker><marker id="f" refX="0" refY="0" orient="auto" overflow="visible"><path d="m2.308 0-3.46 2v-4z" fill="#fff" fill-rule="evenodd" stroke="#fff" stroke-width=".4pt"/></marker><marker id="g" refX="0" refY="0" orient="auto" overflow="visible"><path d="m2.308 0-3.46 2v-4z" fill="#fff" fill-rule="evenodd" stroke="#fff" stroke-width=".4pt"/></marker><marker id="h" refX="0" refY="0" orient="auto" overflow="visible"><path d="m-2.308 0 3.46-2v4z" fill="#fff" fill-rule="evenodd" stroke="#fff" stroke-width=".4pt"/></marker><marker id="i" refX="0" refY="0" orient="auto" overflow="visible"><path d="m2.308 0-3.46 2v-4z" fill="#fff" fill-rule="evenodd" stroke="#fff" stroke-width=".4pt"/></marker><marker id="j" refX="0" refY="0" orient="auto" overflow="visible"><path d="m-2.308 0 3.46-2v4z" fill="#fff" fill-rule="evenodd" stroke="#fff" stroke-width=".4pt"/></marker><marker id="k" refX="0" refY="0" orient="auto" overflow="visible"><path d="m2.308 0-3.46 2v-4z" fill="#fff" fill-rule="evenodd" stroke="#fff" stroke-width=".4pt"/></marker><marker id="l" refX="0" refY="0" orient="auto" overflow="visible"><path d="m-2.308 0 3.46-2v4z" fill="#fff" fill-rule="evenodd" stroke="#fff" stroke-width=".4pt"/></marker><marker id="m" refX="0" refY="0" orient="auto" overflow="visible"><path d="m2.308 0-3.46 2v-4z" fill="#fff" fill-rule="evenodd" stroke="#fff" stroke-width=".4pt"/></marker><clipPath clipPathUnits="userSpaceOnUse" id="a"><path style="font-variation-settings:normal;display:block;opacity:1;vector-effect:none;fill:#77767b;fill-opacity:1;stroke:none;stroke-width:5.04302;stroke-linecap:round;stroke-linejoin:miter;stroke-miterlimit:4;stroke-dasharray:none;stroke-dashoffset:0;stroke-opacity:1;marker:none;marker-start:none;marker-mid:none;marker-end:none;paint-order:normal;stop-color:#000;stop-opacity:1" class="powerclip" d="M399.306 389.64h285.156v401.98H399.306zm216.553 258.086a73.976 73.976 0 0 0-73.975-73.975 73.976 73.976 0 0 0-73.976 73.975 73.976 73.976 0 0 0 73.976 73.976 73.976 73.976 0 0 0 73.975-73.976z"/></clipPath></defs><g clip-path="url(#a)" transform="translate(573.296 47.633) scale(.88652)"><path style="font-variation-settings:normal;opacity:1;vector-effect:none;fill:#cee1f8;fill-opacity:1;stroke:none;stroke-width:5.04302;stroke-linecap:round;stroke-linejoin:miter;stroke-miterlimit:4;stroke-dasharray:none;stroke-dashoffset:0;stroke-opacity:1;marker:none;marker-start:none;marker-mid:none;marker-end:none;paint-order:normal;stop-color:#000;stop-opacity:1" d="M425.264 475.975h233.239a20.913 20.913 0 0 1 20.959 20.959v268.728a20.913 20.913 0 0 1-20.96 20.959H425.266a20.913 20.913 0 0 1-20.96-20.96V496.935a20.913 20.913 0 0 1 20.96-20.959z"/><path style="fill:#99c1f1;fill-opacity:1;stroke-linecap:round;stop-color:#000" d="M404.306 394.64h275.156v310.646H404.306z"/></g><g style="display:inline;stroke-width:.972716;enable-background:new"><path style="display:inline;opacity:1;vector-effect:none;fill:#1a5fb4;fill-opacity:1;stroke:none;stroke-width:.047906px;stroke-linecap:butt;stroke-linejoin:miter;stroke-miterlimit:4;stroke-dasharray:none;stroke-dashoffset:0;stroke-opacity:1;marker:none;marker-start:none;marker-mid:none;marker-end:none;paint-order:normal;enable-background:new" d="M1367.735-75.863v297.615a8 8 135 0 1-8 8h-487.47a8 8 45 0 1-8-8V-75.863a8 8 135 0 1 8-8h487.47a8 8 45 0 1 8 8z" transform="translate(-755.926 243.26) scale(1.61388)"/></g><path style="fill:#99c1f1;fill-opacity:1;stroke:none;stroke-width:1.64611;stroke-linecap:round;stop-color:#000" d="M499.468 124.651h780.123v470.004H499.468z" transform="translate(155.364)"/><g fill="none" stroke="#fff"><g transform="translate(-384.428 -2487.727) scale(1.46687)"><rect width="270" height="190" x="847.792" y="1840.916" rx="6" ry="6" stroke-width="2" stroke-linecap="square" stroke-linejoin="round" stroke-dashoffset="26.4"/><path d="M847.792 1864.916h270" stroke-width="2"/><rect width="150" height="75" x="907.792" y="1890.916" rx="4" ry="4" stroke-width="2" stroke-linecap="square" stroke-linejoin="round" stroke-dashoffset="26.4"/><path d="M907.792 1880.916h40" stroke-width="4"/><path d="M907.792 1920.916h150m-150 30h150" stroke-width="2"/><path d="M1057.792 2030.916v-36c0-2.216-1.784-4-4-4h-142c-2.216 0-4 1.784-4 4v36" stroke-width="2" stroke-linecap="square" stroke-linejoin="round" stroke-dashoffset="26.4"/><path d="M907.792 1980.916h40" stroke-width="4"/><path d="M907.792 2020.916h150" stroke-width="2"/><rect width="14" height="12" x="853.792" y="1846.916" rx="2" ry="2" stroke-width="2" stroke-linecap="square" stroke-linejoin="round" stroke-dashoffset="26.4"/><path stroke-width="2" stroke-linecap="square" stroke-linejoin="round" stroke-dashoffset="26.4" d="M920.792 1840.916h40v24h-40z"/><circle cx="929.792" cy="1852.916" r="3" stroke-width="2" stroke-linecap="square" stroke-linejoin="round" stroke-dashoffset="26.4"/><path d="M939.792 1852.916h15" stroke-width="2"/><circle cx="973.792" cy="1852.916" r="3" stroke-width="2" stroke-linecap="square" stroke-linejoin="round" stroke-dashoffset="26.4"/><path d="M983.792 1852.916h15" stroke-width="2"/><circle cx="1013.792" cy="1852.916" r="3" stroke-width="2" stroke-linecap="square" stroke-linejoin="round" stroke-dashoffset="26.4"/><path d="M1023.792 1852.916h15" stroke-width="2"/><rect width="14" height="12" x="1080.792" y="1846.916" rx="2" ry="2" stroke-width="2" stroke-linecap="square" stroke-linejoin="round" stroke-dashoffset="26.4"/><rect width="14" height="12" x="1060.792" y="1846.916" rx="2" ry="2" stroke-width="2" stroke-linecap="square" stroke-linejoin="round" stroke-dashoffset="26.4"/><circle cx="1105.792" cy="1852.916" r="3" stroke-width="2" stroke-linecap="square" stroke-linejoin="round" stroke-dashoffset="26.4"/><path d="M847.792 1864.916h270" stroke-width="2"/></g><g stroke-width="2"><path d="M822.503 247.4v-34.74m-51.34 0h110.015M771.163 491.367h110.015m-73.344-243.501h73.344m320.245-67.476h20.07m0-15.17v64.543m-20.537-64.542v64.542m-33.738 312.945v-66.01m-220.031 66.01v-66.01m77.745-310.977v66.01m-58.675-66.01v66.01m340.314 54.274h-168.69m168.69 110.015h-168.69" opacity=".4" stroke-width="2.934"/><path d="M797.792 1835.916v180" opacity=".4" marker-start="url(#b)" marker-end="url(#c)" transform="translate(-384.428 -2473.058) scale(1.46687)"/><path d="M822.792 1810.916v15" opacity=".4" marker-end="url(#d)" transform="translate(-384.428 -2473.058) scale(1.46687)"/><path d="M822.792 1874.597v-15" opacity=".4" marker-end="url(#e)" transform="translate(-384.428 -2473.058) scale(1.46687)"/><path d="M1114.792 1808.916h-15" opacity=".4" marker-end="url(#f)" transform="translate(-384.428 -2473.058) scale(1.46687)"/><path d="M1061.11 1808.916h15" opacity=".4" marker-end="url(#g)" transform="translate(-384.428 -2473.058) scale(1.46687)"/><path d="M1052.792 2045.916h-140" opacity=".4" marker-start="url(#h)" marker-end="url(#i)" transform="translate(-384.428 -2473.058) scale(1.46687)"/><path d="M955.792 1808.916h-30" opacity=".4" marker-start="url(#j)" marker-end="url(#k)" transform="translate(-384.428 -2473.058) scale(1.46687)"/><path d="M1142.792 1885.916v65" opacity=".4" marker-start="url(#l)" marker-end="url(#m)" transform="translate(-384.428 -2473.058) scale(1.46687)"/></g></g><rect style="vector-effect:none;fill:#1a5fb4;fill-opacity:1;stroke:none;stroke-width:7.87157;stroke-linecap:round;stroke-linejoin:miter;stroke-miterlimit:4;stroke-dasharray:none;stroke-dashoffset:0;stroke-opacity:1;marker:none;marker-start:none;marker-mid:none;marker-end:none;paint-order:normal" width="472.294" height="288.624" x="199.395" y="400.549" rx="14.299" ry="14.299"/><rect style="vector-effect:none;fill:#99c1f1;fill-opacity:1;stroke:none;stroke-width:7.87157;stroke-linecap:round;stroke-linejoin:miter;stroke-miterlimit:4;stroke-dasharray:none;stroke-dashoffset:0;stroke-opacity:1;marker:none;marker-start:none;marker-mid:none;marker-end:none;paint-order:normal" width="472.294" height="288.624" x="199.395" y="695.733" rx="14.299" ry="14.299"/><rect ry="14.299" rx="14.299" y="689.173" x="199.395" height="288.624" width="472.294" style="vector-effect:none;fill:#cee1f8;fill-opacity:1;stroke:none;stroke-width:7.87157;stroke-linecap:round;stroke-linejoin:miter;stroke-miterlimit:4;stroke-dasharray:none;stroke-dashoffset:0;stroke-opacity:1;marker:none;marker-start:none;marker-mid:none;marker-end:none;paint-order:normal"/><rect style="vector-effect:none;fill:#62a0ea;fill-opacity:1;stroke:none;stroke-width:7.87157;stroke-linecap:round;stroke-linejoin:miter;stroke-miterlimit:4;stroke-dasharray:none;stroke-dashoffset:0;stroke-opacity:1;marker:none;marker-start:none;marker-mid:none;marker-end:none;paint-order:normal" width="419.817" height="144.312" x="225.634" y="715.412" rx="9.708" ry="9.708"/><rect ry="9.708" rx="9.708" y="718.036" x="225.634" height="144.312" width="419.817" style="vector-effect:none;fill:#89b7ef;fill-opacity:1;stroke:none;stroke-width:7.87157;stroke-linecap:round;stroke-linejoin:miter;stroke-miterlimit:4;stroke-dasharray:none;stroke-dashoffset:0;stroke-opacity:1;marker:none;marker-start:none;marker-mid:none;marker-end:none;paint-order:normal"/><rect ry="4.095" rx="4.095" y="662.935" x="278.111" height="36.734" width="314.863" style="vector-effect:none;fill:#1a5fb4;fill-opacity:1;stroke:none;stroke-width:7.87157;stroke-linecap:round;stroke-linejoin:miter;stroke-miterlimit:4;stroke-dasharray:none;stroke-dashoffset:0;stroke-opacity:1;marker:none;marker-start:none;marker-mid:none;marker-end:none;paint-order:normal"/><rect ry="14.299" rx="14.299" y="872.843" x="369.946" height="78.716" width="131.193" style="vector-effect:none;fill:#76aceb;fill-opacity:1;stroke:none;stroke-width:7.87157;stroke-linecap:round;stroke-linejoin:miter;stroke-miterlimit:4;stroke-dasharray:none;stroke-dashoffset:0;stroke-opacity:1;marker:none;marker-start:none;marker-mid:none;marker-end:none;paint-order:normal"/><rect ry="7.806" rx="7.806" y="408.566" x="206.999" height="272.59" width="457.088" style="vector-effect:none;fill:#99c1f1;fill-opacity:1;stroke:none;stroke-width:7.87157;stroke-linecap:round;stroke-linejoin:miter;stroke-miterlimit:4;stroke-dasharray:none;stroke-dashoffset:0;stroke-opacity:1;marker:none;marker-start:none;marker-mid:none;marker-end:none;paint-order:normal"/><rect style="vector-effect:none;fill:#1a5fb4;fill-opacity:1;stroke:none;stroke-width:7.87157;stroke-linecap:round;stroke-linejoin:miter;stroke-miterlimit:4;stroke-dasharray:none;stroke-dashoffset:0;stroke-opacity:1;marker:none;marker-start:none;marker-mid:none;marker-end:none;paint-order:normal" width="229.587" height="26.239" x="330.588" y="826.926" rx="5.023" ry="5.023"/><rect ry="5.023" rx="5.023" y="826.926" x="566.735" height="26.239" width="32.798" style="vector-effect:none;fill:#1a5fb4;fill-opacity:1;stroke:none;stroke-width:7.87157;stroke-linecap:round;stroke-linejoin:miter;stroke-miterlimit:4;stroke-dasharray:none;stroke-dashoffset:0;stroke-opacity:1;marker:none;marker-start:none;marker-mid:none;marker-end:none;paint-order:normal"/><rect style="vector-effect:none;fill:#1a5fb4;fill-opacity:1;stroke:none;stroke-width:7.87157;stroke-linecap:round;stroke-linejoin:miter;stroke-miterlimit:4;stroke-dasharray:none;stroke-dashoffset:0;stroke-opacity:1;marker:none;marker-start:none;marker-mid:none;marker-end:none;paint-order:normal" width="32.798" height="26.239" x="606.093" y="826.926" rx="5.023" ry="5.023"/><rect ry="5.023" rx="5.023" y="794.127" x="586.414" height="26.239" width="26.239" style="vector-effect:none;fill:#1a5fb4;fill-opacity:1;stroke:none;stroke-width:7.87157;stroke-linecap:round;stroke-linejoin:miter;stroke-miterlimit:4;stroke-dasharray:none;stroke-dashoffset:0;stroke-opacity:1;marker:none;marker-start:none;marker-mid:none;marker-end:none;paint-order:normal"/><rect style="vector-effect:none;fill:#1a5fb4;fill-opacity:1;stroke:none;stroke-width:7.87157;stroke-linecap:round;stroke-linejoin:miter;stroke-miterlimit:4;stroke-dasharray:none;stroke-dashoffset:0;stroke-opacity:1;marker:none;marker-start:none;marker-mid:none;marker-end:none;paint-order:normal" width="32.798" height="26.239" x="547.056" y="794.127" rx="5.023" ry="5.023"/><rect ry="5.023" rx="5.023" y="794.127" x="507.698" height="26.239" width="32.798" style="vector-effect:none;fill:#1a5fb4;fill-opacity:1;stroke:none;stroke-width:7.87157;stroke-linecap:round;stroke-linejoin:miter;stroke-miterlimit:4;stroke-dasharray:none;stroke-dashoffset:0;stroke-opacity:1;marker:none;marker-start:none;marker-mid:none;marker-end:none;paint-order:normal"/><rect style="vector-effect:none;fill:#1a5fb4;fill-opacity:1;stroke:none;stroke-width:7.87157;stroke-linecap:round;stroke-linejoin:miter;stroke-miterlimit:4;stroke-dasharray:none;stroke-dashoffset:0;stroke-opacity:1;marker:none;marker-start:none;marker-mid:none;marker-end:none;paint-order:normal" width="32.798" height="26.239" x="468.341" y="794.127" rx="5.023" ry="5.023"/><rect ry="5.023" rx="5.023" y="794.127" x="428.983" height="26.239" width="32.798" style="vector-effect:none;fill:#1a5fb4;fill-opacity:1;stroke:none;stroke-width:7.87157;stroke-linecap:round;stroke-linejoin:miter;stroke-miterlimit:4;stroke-dasharray:none;stroke-dashoffset:0;stroke-opacity:1;marker:none;marker-start:none;marker-mid:none;marker-end:none;paint-order:normal"/><rect style="vector-effect:none;fill:#1a5fb4;fill-opacity:1;stroke:none;stroke-width:7.87157;stroke-linecap:round;stroke-linejoin:miter;stroke-miterlimit:4;stroke-dasharray:none;stroke-dashoffset:0;stroke-opacity:1;marker:none;marker-start:none;marker-mid:none;marker-end:none;paint-order:normal" width="32.798" height="26.239" x="389.625" y="794.127" rx="5.023" ry="5.023"/><rect ry="5.023" rx="5.023" y="794.127" x="350.267" height="26.239" width="32.798" style="vector-effect:none;fill:#1a5fb4;fill-opacity:1;stroke:none;stroke-width:7.87157;stroke-linecap:round;stroke-linejoin:miter;stroke-miterlimit:4;stroke-dasharray:none;stroke-dashoffset:0;stroke-opacity:1;marker:none;marker-start:none;marker-mid:none;marker-end:none;paint-order:normal"/><rect style="vector-effect:none;fill:#1a5fb4;fill-opacity:1;stroke:none;stroke-width:7.87157;stroke-linecap:round;stroke-linejoin:miter;stroke-miterlimit:4;stroke-dasharray:none;stroke-dashoffset:0;stroke-opacity:1;marker:none;marker-start:none;marker-mid:none;marker-end:none;paint-order:normal" width="32.798" height="26.239" x="310.909" y="794.127" rx="5.023" ry="5.023"/><rect ry="5.023" rx="5.023" y="794.127" x="271.551" height="26.239" width="32.798" style="vector-effect:none;fill:#1a5fb4;fill-opacity:1;stroke:none;stroke-width:7.87157;stroke-linecap:round;stroke-linejoin:miter;stroke-miterlimit:4;stroke-dasharray:none;stroke-dashoffset:0;stroke-opacity:1;marker:none;marker-start:none;marker-mid:none;marker-end:none;paint-order:normal"/><rect style="vector-effect:none;fill:#1a5fb4;fill-opacity:1;stroke:none;stroke-width:7.87157;stroke-linecap:round;stroke-linejoin:miter;stroke-miterlimit:4;stroke-dasharray:none;stroke-dashoffset:0;stroke-opacity:1;marker:none;marker-start:none;marker-mid:none;marker-end:none;paint-order:normal" width="32.798" height="26.239" x="566.735" y="761.329" rx="5.023" ry="5.023"/><rect ry="5.023" rx="5.023" y="761.329" x="527.377" height="26.239" width="32.798" style="vector-effect:none;fill:#1a5fb4;fill-opacity:1;stroke:none;stroke-width:7.87157;stroke-linecap:round;stroke-linejoin:miter;stroke-miterlimit:4;stroke-dasharray:none;stroke-dashoffset:0;stroke-opacity:1;marker:none;marker-start:none;marker-mid:none;marker-end:none;paint-order:normal"/><rect style="vector-effect:none;fill:#1a5fb4;fill-opacity:1;stroke:none;stroke-width:7.87157;stroke-linecap:round;stroke-linejoin:miter;stroke-miterlimit:4;stroke-dasharray:none;stroke-dashoffset:0;stroke-opacity:1;marker:none;marker-start:none;marker-mid:none;marker-end:none;paint-order:normal" width="32.798" height="26.239" x="488.02" y="761.329" rx="5.023" ry="5.023"/><rect ry="5.023" rx="5.023" y="761.329" x="448.662" height="26.239" width="32.798" style="vector-effect:none;fill:#1a5fb4;fill-opacity:1;stroke:none;stroke-width:7.87157;stroke-linecap:round;stroke-linejoin:miter;stroke-miterlimit:4;stroke-dasharray:none;stroke-dashoffset:0;stroke-opacity:1;marker:none;marker-start:none;marker-mid:none;marker-end:none;paint-order:normal"/><rect style="vector-effect:none;fill:#1a5fb4;fill-opacity:1;stroke:none;stroke-width:7.87157;stroke-linecap:round;stroke-linejoin:miter;stroke-miterlimit:4;stroke-dasharray:none;stroke-dashoffset:0;stroke-opacity:1;marker:none;marker-start:none;marker-mid:none;marker-end:none;paint-order:normal" width="32.798" height="26.239" x="409.304" y="761.329" rx="5.023" ry="5.023"/><rect ry="5.023" rx="5.023" y="761.329" x="369.946" height="26.239" width="32.798" style="vector-effect:none;fill:#1a5fb4;fill-opacity:1;stroke:none;stroke-width:7.87157;stroke-linecap:round;stroke-linejoin:miter;stroke-miterlimit:4;stroke-dasharray:none;stroke-dashoffset:0;stroke-opacity:1;marker:none;marker-start:none;marker-mid:none;marker-end:none;paint-order:normal"/><rect style="vector-effect:none;fill:#1a5fb4;fill-opacity:1;stroke:none;stroke-width:7.87157;stroke-linecap:round;stroke-linejoin:miter;stroke-miterlimit:4;stroke-dasharray:none;stroke-dashoffset:0;stroke-opacity:1;marker:none;marker-start:none;marker-mid:none;marker-end:none;paint-order:normal" width="32.798" height="26.239" x="330.588" y="761.329" rx="5.023" ry="5.023"/><rect ry="5.023" rx="5.023" y="761.329" x="291.23" height="26.239" width="32.798" style="vector-effect:none;fill:#1a5fb4;fill-opacity:1;stroke:none;stroke-width:7.87157;stroke-linecap:round;stroke-linejoin:miter;stroke-miterlimit:4;stroke-dasharray:none;stroke-dashoffset:0;stroke-opacity:1;marker:none;marker-start:none;marker-mid:none;marker-end:none;paint-order:normal"/><rect style="vector-effect:none;fill:#1a5fb4;fill-opacity:1;stroke:none;stroke-width:7.87157;stroke-linecap:round;stroke-linejoin:miter;stroke-miterlimit:4;stroke-dasharray:none;stroke-dashoffset:0;stroke-opacity:1;marker:none;marker-start:none;marker-mid:none;marker-end:none;paint-order:normal" width="52.477" height="26.239" x="232.194" y="761.329" rx="5.023" ry="5.023"/><rect ry="5.023" rx="5.023" y="728.531" x="586.414" height="26.239" width="52.477" style="vector-effect:none;fill:#1a5fb4;fill-opacity:1;stroke:none;stroke-width:7.87157;stroke-linecap:round;stroke-linejoin:miter;stroke-miterlimit:4;stroke-dasharray:none;stroke-dashoffset:0;stroke-opacity:1;marker:none;marker-start:none;marker-mid:none;marker-end:none;paint-order:normal"/><rect style="vector-effect:none;fill:#1a5fb4;fill-opacity:1;stroke:none;stroke-width:7.87157;stroke-linecap:round;stroke-linejoin:miter;stroke-miterlimit:4;stroke-dasharray:none;stroke-dashoffset:0;stroke-opacity:1;marker:none;marker-start:none;marker-mid:none;marker-end:none;paint-order:normal" width="32.798" height="26.239" x="547.056" y="728.531" rx="5.023" ry="5.023"/><rect ry="5.023" rx="5.023" y="728.531" x="507.698" height="26.239" width="32.798" style="vector-effect:none;fill:#1a5fb4;fill-opacity:1;stroke:none;stroke-width:7.87157;stroke-linecap:round;stroke-linejoin:miter;stroke-miterlimit:4;stroke-dasharray:none;stroke-dashoffset:0;stroke-opacity:1;marker:none;marker-start:none;marker-mid:none;marker-end:none;paint-order:normal"/><rect style="vector-effect:none;fill:#1a5fb4;fill-opacity:1;stroke:none;stroke-width:7.87157;stroke-linecap:round;stroke-linejoin:miter;stroke-miterlimit:4;stroke-dasharray:none;stroke-dashoffset:0;stroke-opacity:1;marker:none;marker-start:none;marker-mid:none;marker-end:none;paint-order:normal" width="32.798" height="26.239" x="468.341" y="728.531" rx="5.023" ry="5.023"/><rect ry="5.023" rx="5.023" y="728.531" x="428.983" height="26.239" width="32.798" style="vector-effect:none;fill:#1a5fb4;fill-opacity:1;stroke:none;stroke-width:7.87157;stroke-linecap:round;stroke-linejoin:miter;stroke-miterlimit:4;stroke-dasharray:none;stroke-dashoffset:0;stroke-opacity:1;marker:none;marker-start:none;marker-mid:none;marker-end:none;paint-order:normal"/><rect style="vector-effect:none;fill:#1a5fb4;fill-opacity:1;stroke:none;stroke-width:7.87157;stroke-linecap:round;stroke-linejoin:miter;stroke-miterlimit:4;stroke-dasharray:none;stroke-dashoffset:0;stroke-opacity:1;marker:none;marker-start:none;marker-mid:none;marker-end:none;paint-order:normal" width="32.798" height="26.239" x="389.625" y="728.531" rx="5.023" ry="5.023"/><rect ry="5.023" rx="5.023" y="728.531" x="350.267" height="26.239" width="32.798" style="vector-effect:none;fill:#1a5fb4;fill-opacity:1;stroke:none;stroke-width:7.87157;stroke-linecap:round;stroke-linejoin:miter;stroke-miterlimit:4;stroke-dasharray:none;stroke-dashoffset:0;stroke-opacity:1;marker:none;marker-start:none;marker-mid:none;marker-end:none;paint-order:normal"/><rect style="vector-effect:none;fill:#1a5fb4;fill-opacity:1;stroke:none;stroke-width:7.87157;stroke-linecap:round;stroke-linejoin:miter;stroke-miterlimit:4;stroke-dasharray:none;stroke-dashoffset:0;stroke-opacity:1;marker:none;marker-start:none;marker-mid:none;marker-end:none;paint-order:normal" width="32.798" height="26.239" x="310.909" y="728.531" rx="5.023" ry="5.023"/><rect ry="5.023" rx="5.023" y="728.531" x="271.551" height="26.239" width="32.798" style="vector-effect:none;fill:#1a5fb4;fill-opacity:1;stroke:none;stroke-width:7.87157;stroke-linecap:round;stroke-linejoin:miter;stroke-miterlimit:4;stroke-dasharray:none;stroke-dashoffset:0;stroke-opacity:1;marker:none;marker-start:none;marker-mid:none;marker-end:none;paint-order:normal"/><rect style="vector-effect:none;fill:#1a5fb4;fill-opacity:1;stroke:none;stroke-width:7.87157;stroke-linecap:round;stroke-linejoin:miter;stroke-miterlimit:4;stroke-dasharray:none;stroke-dashoffset:0;stroke-opacity:1;marker:none;marker-start:none;marker-mid:none;marker-end:none;paint-order:normal" width="32.798" height="26.239" x="232.194" y="728.531" rx="5.023" ry="5.023"/><rect style="vector-effect:none;fill:#1a5fb4;fill-opacity:1;stroke:none;stroke-width:7.87157;stroke-linecap:round;stroke-linejoin:miter;stroke-miterlimit:4;stroke-dasharray:none;stroke-dashoffset:0;stroke-opacity:1;marker:none;marker-start:none;marker-mid:none;marker-end:none;paint-order:normal" width="32.798" height="26.239" x="232.194" y="794.127" rx="5.023" ry="5.023"/><rect style="vector-effect:none;fill:#1a5fb4;fill-opacity:1;stroke:none;stroke-width:7.87157;stroke-linecap:round;stroke-linejoin:miter;stroke-miterlimit:4;stroke-dasharray:none;stroke-dashoffset:0;stroke-opacity:1;marker:none;marker-start:none;marker-mid:none;marker-end:none;paint-order:normal" width="32.798" height="26.239" x="291.23" y="826.926" rx="5.023" ry="5.023"/><rect ry="5.023" rx="5.023" y="826.926" x="232.194" height="26.239" width="52.477" style="vector-effect:none;fill:#1a5fb4;fill-opacity:1;stroke:none;stroke-width:7.87157;stroke-linecap:round;stroke-linejoin:miter;stroke-miterlimit:4;stroke-dasharray:none;stroke-dashoffset:0;stroke-opacity:1;marker:none;marker-start:none;marker-mid:none;marker-end:none;paint-order:normal"/><rect ry="5.023" rx="5.023" y="761.329" x="606.093" height="26.239" width="32.798" style="vector-effect:none;fill:#1a5fb4;fill-opacity:1;stroke:none;stroke-width:7.87157;stroke-linecap:round;stroke-linejoin:miter;stroke-miterlimit:4;stroke-dasharray:none;stroke-dashoffset:0;stroke-opacity:1;marker:none;marker-start:none;marker-mid:none;marker-end:none;paint-order:normal"/><rect style="vector-effect:none;fill:#1a5fb4;fill-opacity:1;stroke:none;stroke-width:7.87157;stroke-linecap:round;stroke-linejoin:miter;stroke-miterlimit:4;stroke-dasharray:none;stroke-dashoffset:0;stroke-opacity:1;marker:none;marker-start:none;marker-mid:none;marker-end:none;paint-order:normal" width="19.679" height="59.037" x="619.212" y="761.329" rx="5.023" ry="5.023"/><rect width="144.014" height="164.015" x="372.932" y="469.438" rx="8.801" ry="8.801" style="fill:none;stroke:#fff;stroke-width:.43833"/><circle cx="507.65" cy="480.512" r="2.578" style="fill:none;stroke:#fff;stroke-width:.43833"/><path d="M373.834 502.504h142.633M373.834 607.41h142.633" style="fill:none;stroke:#fff;stroke-width:.43833"/><path d="M546.509 475.912v150.77" opacity=".4" marker-start="url(#b)" marker-end="url(#c)" style="fill:none;stroke:#fff;stroke-width:2.93378"/><path style="font-variation-settings:normal;vector-effect:none;fill:none;fill-opacity:1;stroke:#fff;stroke-width:2.93378;stroke-linecap:butt;stroke-linejoin:miter;stroke-miterlimit:4;stroke-dasharray:none;stroke-dashoffset:0;stroke-opacity:1;stop-color:#000" d="M444.921 633.29v-25.186"/><path d="M396.391 502.504h-44.926m44.926-33.096h-44.926m6.433 31.563v-30m195.834 162.12h-44.927m44.927-163.683h-44.927" style="font-variation-settings:normal;opacity:.4;vector-effect:none;fill:none;fill-opacity:1;stroke:#fff;stroke-width:2.93404;stroke-linecap:butt;stroke-linejoin:miter;stroke-miterlimit:4;stroke-dasharray:none;stroke-dashoffset:0;stroke-opacity:1;stop-color:#000"/><path d="M357.903 531.175v-21.802" style="font-variation-settings:normal;opacity:.4;vector-effect:none;fill:none;fill-opacity:1;stroke:#fff;stroke-width:2.93404;stroke-linecap:butt;stroke-linejoin:miter;stroke-miterlimit:4;stroke-dasharray:none;stroke-dashoffset:0;stroke-opacity:1;marker-end:url(#c);stop-color:#000"/><path d="M357.903 441.037v21.802" style="font-variation-settings:normal;opacity:.4;vector-effect:none;fill:none;fill-opacity:1;stroke:#fff;stroke-width:2.93404;stroke-linecap:butt;stroke-linejoin:miter;stroke-miterlimit:4;stroke-dasharray:none;stroke-dashoffset:0;stroke-opacity:1;marker-end:url(#c);stop-color:#000"/><rect width="20.536" height="17.602" x="380.922" y="476.447" rx="2.934" ry="2.934" style="font-variation-settings:normal;vector-effect:none;fill:none;fill-opacity:1;stroke:#fff;stroke-width:2.93375;stroke-linecap:butt;stroke-linejoin:miter;stroke-miterlimit:4;stroke-dasharray:none;stroke-dashoffset:0;stroke-opacity:1;stop-color:#000"/><path style="font-variation-settings:normal;vector-effect:none;fill:#1a5fb4;fill-opacity:1;stroke:none;stroke-width:2.01734;stroke-linecap:round;stroke-linejoin:miter;stroke-miterlimit:4;stroke-dasharray:none;stroke-dashoffset:0;stroke-opacity:1;-inkscape-stroke:none;marker:none;marker-start:none;marker-mid:none;marker-end:none;paint-order:normal;stop-color:#000" d="M1396.74 409.283c-15.576 0-28.39 12.814-28.39 28.391v294.607c0 15.577 12.815 28.389 28.39 28.389h204.057c15.576 0 28.391-12.812 28.391-28.39V437.675c0-15.577-12.814-28.391-28.391-28.391z"/><rect style="font-variation-settings:normal;vector-effect:none;fill:#99c1f1;fill-opacity:1;stroke:none;stroke-width:2.01734;stroke-linecap:round;stroke-linejoin:miter;stroke-miterlimit:4;stroke-dasharray:none;stroke-dashoffset:0;stroke-opacity:1;-inkscape-stroke:none;marker:none;marker-start:none;marker-mid:none;marker-end:none;paint-order:normal;stop-color:#000" width="243.352" height="333.9" x="1377.092" y="418.027" rx="19.647" ry="19.647"/><rect style="fill:#fff;stroke-width:2.9378;stroke-linecap:round;stroke-linejoin:round;stroke-dasharray:2.9378,5.87561;stop-color:#000" width="29.378" height="29.378" x="1421.748" y="520.961" rx="14.689" ry="14.689"/><rect style="fill:#fff;stroke-width:2.9378;stroke-linecap:round;stroke-linejoin:round;stroke-dasharray:2.9378,5.87561;stop-color:#000" width="29.378" height="29.378" x="1465.815" y="520.961" rx="14.689" ry="14.689"/><rect style="fill:#fff;stroke-width:2.9378;stroke-linecap:round;stroke-linejoin:round;stroke-dasharray:2.9378,5.87561;stop-color:#000" width="29.378" height="29.378" x="1421.748" y="565.028" rx="14.689" ry="14.689"/><rect style="fill:#fff;stroke-width:2.9378;stroke-linecap:round;stroke-linejoin:round;stroke-dasharray:2.9378,5.87561;stop-color:#000" width="29.378" height="29.378" x="1465.815" y="565.028" rx="14.689" ry="14.689"/><rect style="fill:#fff;stroke-width:2.9378;stroke-linecap:round;stroke-linejoin:round;stroke-dasharray:2.9378,5.87561;stop-color:#000" width="29.378" height="29.378" x="1421.748" y="609.095" rx="14.689" ry="14.689"/><rect style="fill:#fff;stroke-width:2.9378;stroke-linecap:round;stroke-linejoin:round;stroke-dasharray:2.9378,5.87561;stop-color:#000" width="29.378" height="29.378" x="1465.815" y="609.095" rx="14.689" ry="14.689"/><rect style="fill:#fff;stroke-width:2.9378;stroke-linecap:round;stroke-linejoin:round;stroke-dasharray:2.9378,5.87561;stop-color:#000" width="29.378" height="29.378" x="1421.748" y="653.162" rx="14.689" ry="14.689"/><rect style="fill:#fff;stroke-width:2.9378;stroke-linecap:round;stroke-linejoin:round;stroke-dasharray:2.9378,5.87561;stop-color:#000" width="29.378" height="29.378" x="1465.815" y="653.162" rx="14.689" ry="14.689"/><rect style="fill:#fff;stroke-width:2.9378;stroke-linecap:round;stroke-linejoin:round;stroke-dasharray:2.9378,5.87561;stop-color:#000" width="29.378" height="29.378" x="1509.883" y="520.961" rx="14.689" ry="14.689"/><rect style="fill:#fff;stroke-width:2.9378;stroke-linecap:round;stroke-linejoin:round;stroke-dasharray:2.9378,5.87561;stop-color:#000" width="29.378" height="29.378" x="1553.95" y="520.961" rx="14.689" ry="14.689"/><rect style="fill:#fff;stroke-width:2.9378;stroke-linecap:round;stroke-linejoin:round;stroke-dasharray:2.9378,5.87561;stop-color:#000" width="29.378" height="29.378" x="1509.883" y="565.028" rx="14.689" ry="14.689"/><rect style="fill:#fff;stroke-width:2.9378;stroke-linecap:round;stroke-linejoin:round;stroke-dasharray:2.9378,5.87561;stop-color:#000" width="29.378" height="29.378" x="1553.95" y="565.028" rx="14.689" ry="14.689"/><rect style="fill:#fff;stroke-width:2.9378;stroke-linecap:round;stroke-linejoin:round;stroke-dasharray:2.9378,5.87561;stop-color:#000" width="29.378" height="29.378" x="1509.883" y="609.095" rx="14.689" ry="14.689"/><rect style="fill:#fff;stroke-width:2.9378;stroke-linecap:round;stroke-linejoin:round;stroke-dasharray:2.9378,5.87561;stop-color:#000" width="29.378" height="29.378" x="1553.95" y="609.095" rx="14.689" ry="14.689"/><rect style="fill:#fff;stroke-width:2.9378;stroke-linecap:round;stroke-linejoin:round;stroke-dasharray:2.9378,5.87561;stop-color:#000" width="29.378" height="29.378" x="1509.883" y="653.162" rx="14.689" ry="14.689"/><rect style="fill:#fff;stroke-width:2.9378;stroke-linecap:round;stroke-linejoin:round;stroke-dasharray:2.9378,5.87561;stop-color:#000" width="29.378" height="29.378" x="1553.95" y="653.162" rx="14.689" ry="14.689"/><path style="fill:#fff;stroke:#fff;stroke-width:1.4689;stroke-linecap:butt;stroke-linejoin:miter;stroke-miterlimit:4;stroke-dasharray:none;stroke-opacity:1" d="M1422.483 695.186V476.894m160.11 218.105V476.893"/><g style="fill:#fff"><path style="fill:#fff;stroke:#fff;stroke-width:1.00112px;stroke-linecap:butt;stroke-linejoin:miter;stroke-opacity:1" d="M180.986 75.5H289.19" transform="translate(1157.346 388.76) scale(1.4689)"/><path style="fill:#fff;stroke-linecap:round;stroke-linejoin:round;stop-color:#000" d="M183.029 72.465v5.827l-2.913-2.914zM287 72.587v5.827l2.913-2.913z" transform="translate(1157.346 388.76) scale(1.4689)"/></g><rect style="fill:#fff;fill-opacity:1;stroke-width:6.04072;stroke-linecap:round;stroke-linejoin:round;stroke-dasharray:6.04072,12.0814;stop-color:#000" width="76.317" height="14.86" x="1468.044" y="465.503" rx="7.43" ry="7.43"/><path style="color:#000;fill:#1a5fb4;stroke-width:2.37021;stroke-linecap:round;-inkscape-stroke:none" d="M2707.086 721.783c-11.166 0-20.367 9.201-20.367 20.367v129.553c0 11.166 9.2 20.367 20.367 20.367h54.922c11.166 0 20.367-9.2 20.367-20.367V742.15c0-11.166-9.201-20.367-20.367-20.367z" transform="translate(-1549.431 -173.787) scale(1.16717)"/><path style="vector-effect:none;fill:#99c1f1;stroke-width:2.37021;stroke-linecap:round;marker:none;marker-start:none;marker-mid:none;marker-end:none" transform="rotate(-90 -861.609 687.822) scale(1.16717)" d="M-871.702 2693.508h129.552a13.55 13.55 0 0 1 13.579 13.58v54.92a13.55 13.55 0 0 1-13.579 13.58h-129.552a13.55 13.55 0 0 1-13.579-13.58v-54.92a13.55 13.55 0 0 1 13.579-13.58z"/><path style="fill:#1a5fb4;fill-opacity:1;stroke:none;stroke-width:1.7531;stroke-linecap:round;stroke-opacity:1;-inkscape-stroke:none;stop-color:#000" d="M2705.984 727.385v.017a7.792 7.792 0 0 0 7.81 7.808h41.185a7.792 7.792 0 0 0 7.81-7.808v-.017z" transform="translate(-1549.431 -173.787) scale(1.16717)"/><rect style="fill:#fff;stroke-width:1.26987;stroke-linecap:round;stroke-linejoin:round;stroke-dasharray:1.26987,2.53974;stop-color:#000" width="12.699" height="12.699" x="1607.329" y="708.792" rx="6.349" ry="6.349"/><rect style="fill:#fff;stroke-width:1.26987;stroke-linecap:round;stroke-linejoin:round;stroke-dasharray:1.26987,2.53974;stop-color:#000" width="12.699" height="12.699" x="1626.377" y="708.792" rx="6.349" ry="6.349"/><rect style="fill:#fff;stroke-width:1.26987;stroke-linecap:round;stroke-linejoin:round;stroke-dasharray:1.26987,2.53974;stop-color:#000" width="12.699" height="12.699" x="1607.329" y="727.84" rx="6.349" ry="6.349"/><rect style="fill:#fff;stroke-width:1.26987;stroke-linecap:round;stroke-linejoin:round;stroke-dasharray:1.26987,2.53974;stop-color:#000" width="12.699" height="12.699" x="1626.377" y="727.84" rx="6.349" ry="6.349"/><rect style="fill:#fff;stroke-width:1.26987;stroke-linecap:round;stroke-linejoin:round;stroke-dasharray:1.26987,2.53974;stop-color:#000" width="12.699" height="12.699" x="1607.329" y="746.887" rx="6.349" ry="6.349"/><rect style="fill:#fff;stroke-width:1.26987;stroke-linecap:round;stroke-linejoin:round;stroke-dasharray:1.26987,2.53974;stop-color:#000" width="12.699" height="12.699" x="1626.377" y="746.887" rx="6.349" ry="6.349"/><rect style="fill:#fff;stroke-width:1.26987;stroke-linecap:round;stroke-linejoin:round;stroke-dasharray:1.26987,2.53974;stop-color:#000" width="12.699" height="12.699" x="1607.329" y="765.936" rx="6.349" ry="6.349"/><rect style="fill:#fff;stroke-width:1.26987;stroke-linecap:round;stroke-linejoin:round;stroke-dasharray:1.26987,2.53974;stop-color:#000" width="12.699" height="12.699" x="1626.377" y="765.936" rx="6.349" ry="6.349"/><rect style="fill:#fff;stroke-width:1.26987;stroke-linecap:round;stroke-linejoin:round;stroke-dasharray:1.26987,2.53974;stop-color:#000" width="12.699" height="12.699" x="1645.425" y="708.792" rx="6.349" ry="6.349"/><rect style="fill:#fff;stroke-width:1.26987;stroke-linecap:round;stroke-linejoin:round;stroke-dasharray:1.26987,2.53974;stop-color:#000" width="12.699" height="12.699" x="1664.472" y="708.792" rx="6.349" ry="6.349"/><rect style="fill:#fff;stroke-width:1.26987;stroke-linecap:round;stroke-linejoin:round;stroke-dasharray:1.26987,2.53974;stop-color:#000" width="12.699" height="12.699" x="1645.425" y="727.84" rx="6.349" ry="6.349"/><rect style="fill:#fff;stroke-width:1.26987;stroke-linecap:round;stroke-linejoin:round;stroke-dasharray:1.26987,2.53974;stop-color:#000" width="12.699" height="12.699" x="1664.472" y="727.84" rx="6.349" ry="6.349"/><rect style="fill:#fff;stroke-width:1.26987;stroke-linecap:round;stroke-linejoin:round;stroke-dasharray:1.26987,2.53974;stop-color:#000" width="12.699" height="12.699" x="1645.425" y="746.887" rx="6.349" ry="6.349"/><rect style="fill:#fff;stroke-width:1.26987;stroke-linecap:round;stroke-linejoin:round;stroke-dasharray:1.26987,2.53974;stop-color:#000" width="12.699" height="12.699" x="1664.472" y="746.887" rx="6.349" ry="6.349"/><rect style="fill:#fff;stroke-width:1.26987;stroke-linecap:round;stroke-linejoin:round;stroke-dasharray:1.26987,2.53974;stop-color:#000" width="12.699" height="12.699" x="1645.425" y="765.936" rx="6.349" ry="6.349"/><rect style="fill:#fff;stroke-width:1.26987;stroke-linecap:round;stroke-linejoin:round;stroke-dasharray:1.26987,2.53974;stop-color:#000" width="12.699" height="12.699" x="1664.472" y="765.936" rx="6.349" ry="6.349"/><path style="fill:#fff;stroke:#fff;stroke-width:.634933;stroke-linecap:butt;stroke-linejoin:miter;stroke-miterlimit:4;stroke-dasharray:none;stroke-opacity:1" d="M1607.646 837.788V689.744"/><path style="fill:#fff;stroke:#fff;stroke-width:.634937;stroke-linecap:butt;stroke-linejoin:miter;stroke-miterlimit:4;stroke-dasharray:none;stroke-opacity:1" d="M1676.854 837.707V689.744"/><g style="fill:#fff"><path style="fill:#fff;stroke:#fff;stroke-width:1.00112px;stroke-linecap:butt;stroke-linejoin:miter;stroke-opacity:1" d="M180.986 75.5H289.19" transform="translate(1493.04 651.648) scale(.63493)"/><path style="fill:#fff;stroke-linecap:round;stroke-linejoin:round;stop-color:#000" d="M183.029 72.465v5.827l-2.913-2.914zM287 72.587v5.827l2.913-2.913z" transform="translate(1493.04 651.648) scale(.63493)"/></g><rect style="fill:#fff;stroke-width:1.26987;stroke-linecap:round;stroke-linejoin:round;stroke-dasharray:1.26987,2.53974;stop-color:#000" width="12.699" height="12.699" x="1607.329" y="837.788" rx="6.349" ry="6.349"/><rect style="fill:#fff;stroke-width:1.26987;stroke-linecap:round;stroke-linejoin:round;stroke-dasharray:1.26987,2.53974;stop-color:#000" width="12.699" height="12.699" x="1626.377" y="837.788" rx="6.349" ry="6.349"/><rect style="fill:#fff;stroke-width:1.26987;stroke-linecap:round;stroke-linejoin:round;stroke-dasharray:1.26987,2.53974;stop-color:#000" width="12.699" height="12.699" x="1645.425" y="837.788" rx="6.349" ry="6.349"/><rect style="fill:#fff;stroke-width:1.26987;stroke-linecap:round;stroke-linejoin:round;stroke-dasharray:1.26987,2.53974;stop-color:#000" width="12.699" height="12.699" x="1664.472" y="837.788" rx="6.349" ry="6.349"/><rect style="fill:#fff;stroke-width:1.26987;stroke-linecap:round;stroke-linejoin:round;stroke-dasharray:1.26987,2.53974;stop-color:#000" width="12.699" height="12.699" x="1607.329" y="785.654" rx="6.349" ry="6.349"/><rect style="fill:#fff;stroke-width:1.26987;stroke-linecap:round;stroke-linejoin:round;stroke-dasharray:1.26987,2.53974;stop-color:#000" width="12.699" height="12.699" x="1626.377" y="785.654" rx="6.349" ry="6.349"/><rect style="fill:#fff;stroke-width:1.26987;stroke-linecap:round;stroke-linejoin:round;stroke-dasharray:1.26987,2.53974;stop-color:#000" width="12.699" height="12.699" x="1645.425" y="785.654" rx="6.349" ry="6.349"/><rect style="fill:#fff;stroke-width:1.26987;stroke-linecap:round;stroke-linejoin:round;stroke-dasharray:1.26987,2.53974;stop-color:#000" width="12.699" height="12.699" x="1664.472" y="785.654" rx="6.349" ry="6.349"/><g style="display:inline;stroke-width:1.04199"><path style="display:inline;opacity:1;vector-effect:none;fill:#99c1f1;fill-opacity:1;stroke:none;stroke-width:1.03994;stroke-linecap:round;stroke-linejoin:miter;stroke-miterlimit:4;stroke-dasharray:none;stroke-dashoffset:0;stroke-opacity:1;marker:none;marker-start:none;marker-mid:none;marker-end:none;paint-order:normal" d="M59.73 183.9h93.618c.982 0 1.772.79 1.772 1.771v30.967c0 .981-.79 1.772-1.772 1.772H59.73c-.98 0-1.771-.79-1.771-1.772v-30.967c0-.981.79-1.771 1.771-1.771z" transform="translate(532.773 -102.134) scale(4.97029)"/><path style="display:inline;opacity:1;vector-effect:none;fill:#cee1f8;fill-opacity:1;stroke:none;stroke-width:1.037;stroke-linecap:round;stroke-linejoin:miter;stroke-miterlimit:4;stroke-dasharray:none;stroke-dashoffset:0;stroke-opacity:1;marker:none;marker-start:none;marker-mid:none;marker-end:none;paint-order:normal" d="M59.73 182.69h93.618c.982 0 1.772.79 1.772 1.772v30.772c0 .982-.79 1.772-1.772 1.772H59.73c-.98 0-1.771-.79-1.771-1.772v-30.772c0-.981.79-1.771 1.771-1.771z" transform="translate(532.773 -102.134) scale(4.97029)"/><path style="display:inline;opacity:1;vector-effect:none;fill:#1a5fb4;fill-opacity:1;stroke:none;stroke-width:1.65416;stroke-linecap:round;stroke-linejoin:miter;stroke-miterlimit:4;stroke-dasharray:none;stroke-dashoffset:0;stroke-opacity:1;marker:none;marker-start:none;marker-mid:none;marker-end:none;paint-order:normal" d="M138.73 200.406h4.588a1.01 1.01 0 0 1 1.013 1.013v3.266a1.01 1.01 0 0 1-1.013 1.013h-4.588a1.01 1.01 0 0 1-1.013-1.013v-3.266a1.01 1.01 0 0 1 1.013-1.013zm7.94-13.061h4.589a1.01 1.01 0 0 1 1.013 1.013v3.266a1.01 1.01 0 0 1-1.013 1.012h-4.59a1.01 1.01 0 0 1-1.012-1.012v-3.266a1.01 1.01 0 0 1 1.013-1.013zm0 19.687h4.589a1.01 1.01 0 0 1 1.013 1.013v3.266a1.01 1.01 0 0 1-1.013 1.013h-4.59a1.01 1.01 0 0 1-1.012-1.013v-3.266a1.01 1.01 0 0 1 1.013-1.013zm-7.94-19.687h4.588a1.01 1.01 0 0 1 1.013 1.013v3.266a1.01 1.01 0 0 1-1.013 1.012h-4.588a1.01 1.01 0 0 1-1.013-1.012v-3.266a1.01 1.01 0 0 1 1.013-1.013zm-7.938 0h4.589a1.01 1.01 0 0 1 1.013 1.013v3.266a1.01 1.01 0 0 1-1.013 1.012h-4.589a1.01 1.01 0 0 1-1.013-1.012v-3.266a1.01 1.01 0 0 1 1.013-1.013zm7.938 19.687h4.588a1.01 1.01 0 0 1 1.013 1.013v3.266a1.01 1.01 0 0 1-1.013 1.013h-4.588a1.01 1.01 0 0 1-1.013-1.013v-3.266a1.01 1.01 0 0 1 1.013-1.013zm-7.938 0h4.589a1.01 1.01 0 0 1 1.013 1.013v3.266a1.01 1.01 0 0 1-1.013 1.013h-4.589a1.01 1.01 0 0 1-1.013-1.013v-3.266a1.01 1.01 0 0 1 1.013-1.013zm-49.27 0h4.59a1.01 1.01 0 0 1 1.012 1.013v3.266a1.01 1.01 0 0 1-1.013 1.013h-4.589a1.01 1.01 0 0 1-1.013-1.013v-3.266a1.01 1.01 0 0 1 1.013-1.013zm3.952-19.843h4.59a1.01 1.01 0 0 1 1.012 1.013v3.265a1.01 1.01 0 0 1-1.013 1.013h-4.589a1.01 1.01 0 0 1-1.012-1.013v-3.265a1.01 1.01 0 0 1 1.012-1.013zm-3.968 6.614h4.588a1.01 1.01 0 0 1 1.013 1.013v3.266a1.01 1.01 0 0 1-1.013 1.013h-4.588a1.01 1.01 0 0 1-1.013-1.013v-3.266a1.01 1.01 0 0 1 1.013-1.013zm3.968 6.615h4.59a1.01 1.01 0 0 1 1.012 1.013v3.266a1.01 1.01 0 0 1-1.013 1.012h-4.589a1.01 1.01 0 0 1-1.012-1.012v-3.266a1.01 1.01 0 0 1 1.012-1.013zm38.36-6.615h1.942a1.01 1.01 0 0 1 1.013 1.013v9.88a1.01 1.01 0 0 1-1.013 1.013h-1.942a1.01 1.01 0 0 1-1.013-1.012v-9.88a1.01 1.01 0 0 1 1.013-1.014zm-2.646 0h4.588a1.01 1.01 0 0 1 1.013 1.013v3.266a1.01 1.01 0 0 1-1.013 1.013h-4.588a1.01 1.01 0 0 1-1.013-1.013v-3.266a1.01 1.01 0 0 1 1.013-1.013zm-59.571 13.23h8.557a1.01 1.01 0 0 1 1.013 1.012v3.266a1.01 1.01 0 0 1-1.013 1.013h-8.557a1.01 1.01 0 0 1-1.013-1.013v-3.266a1.01 1.01 0 0 1 1.013-1.013zm11.906 0h4.589a1.01 1.01 0 0 1 1.013 1.012v3.266a1.01 1.01 0 0 1-1.013 1.013h-4.589a1.01 1.01 0 0 1-1.013-1.013v-3.266a1.01 1.01 0 0 1 1.013-1.013zm-11.906-6.615h4.588a1.01 1.01 0 0 1 1.013 1.013v3.266a1.01 1.01 0 0 1-1.013 1.012h-4.588a1.01 1.01 0 0 1-1.013-1.012v-3.266a1.01 1.01 0 0 1 1.013-1.013zm0-13.23h4.588a1.01 1.01 0 0 1 1.013 1.014v3.265a1.01 1.01 0 0 1-1.013 1.013h-4.588a1.01 1.01 0 0 1-1.013-1.013v-3.265a1.01 1.01 0 0 1 1.013-1.013zm7.937 0h4.589a1.01 1.01 0 0 1 1.013 1.014v3.265a1.01 1.01 0 0 1-1.013 1.013h-4.589a1.01 1.01 0 0 1-1.013-1.013v-3.265a1.01 1.01 0 0 1 1.013-1.013zm7.938 0h4.588a1.01 1.01 0 0 1 1.013 1.014v3.265a1.01 1.01 0 0 1-1.013 1.013h-4.588a1.01 1.01 0 0 1-1.013-1.013v-3.265a1.01 1.01 0 0 1 1.013-1.013zm15.915 0h4.588a1.01 1.01 0 0 1 1.013 1.014v3.265a1.01 1.01 0 0 1-1.013 1.013h-4.588a1.01 1.01 0 0 1-1.013-1.013v-3.265a1.01 1.01 0 0 1 1.013-1.013zm7.937 0h4.589a1.01 1.01 0 0 1 1.013 1.014v3.265a1.01 1.01 0 0 1-1.013 1.013h-4.589a1.01 1.01 0 0 1-1.013-1.013v-3.265a1.01 1.01 0 0 1 1.013-1.013zm7.938 0h4.588a1.01 1.01 0 0 1 1.013 1.014v3.265a1.01 1.01 0 0 1-1.013 1.013h-4.588a1.01 1.01 0 0 1-1.013-1.013v-3.265a1.01 1.01 0 0 1 1.013-1.013zm7.937 0h8.557a1.01 1.01 0 0 1 1.013 1.014v3.265a1.01 1.01 0 0 1-1.013 1.013h-8.557a1.01 1.01 0 0 1-1.013-1.013v-3.265a1.01 1.01 0 0 1 1.013-1.013zm-55.602 6.615h8.557a1.01 1.01 0 0 1 1.013 1.013v3.266a1.01 1.01 0 0 1-1.013 1.013h-8.557a1.01 1.01 0 0 1-1.013-1.013v-3.266a1.01 1.01 0 0 1 1.013-1.013zm11.906 0h4.589a1.01 1.01 0 0 1 1.013 1.013v3.266a1.01 1.01 0 0 1-1.013 1.013h-4.589a1.01 1.01 0 0 1-1.013-1.013v-3.266a1.01 1.01 0 0 1 1.013-1.013zm15.915 0h4.588a1.01 1.01 0 0 1 1.013 1.013v3.266a1.01 1.01 0 0 1-1.013 1.013h-4.588a1.01 1.01 0 0 1-1.013-1.013v-3.266a1.01 1.01 0 0 1 1.013-1.013zm7.937 0h4.589a1.01 1.01 0 0 1 1.013 1.013v3.266a1.01 1.01 0 0 1-1.013 1.013h-4.589a1.01 1.01 0 0 1-1.013-1.013v-3.266a1.01 1.01 0 0 1 1.013-1.013zm7.938 0h4.588a1.01 1.01 0 0 1 1.013 1.013v3.266a1.01 1.01 0 0 1-1.013 1.013h-4.588a1.01 1.01 0 0 1-1.013-1.013v-3.266a1.01 1.01 0 0 1 1.013-1.013zm7.937 0h4.589a1.01 1.01 0 0 1 1.013 1.013v3.266a1.01 1.01 0 0 1-1.013 1.013h-4.589a1.01 1.01 0 0 1-1.013-1.013v-3.266a1.01 1.01 0 0 1 1.013-1.013zm-43.696 6.615h4.589a1.01 1.01 0 0 1 1.013 1.013v3.266a1.01 1.01 0 0 1-1.013 1.012h-4.589a1.01 1.01 0 0 1-1.013-1.012v-3.266a1.01 1.01 0 0 1 1.013-1.013zm7.938 0h4.588a1.01 1.01 0 0 1 1.013 1.013v3.266a1.01 1.01 0 0 1-1.013 1.012h-4.588a1.01 1.01 0 0 1-1.013-1.012v-3.266a1.01 1.01 0 0 1 1.013-1.013zm15.915 0h4.588a1.01 1.01 0 0 1 1.013 1.013v3.266a1.01 1.01 0 0 1-1.013 1.012h-4.588a1.01 1.01 0 0 1-1.013-1.012v-3.266a1.01 1.01 0 0 1 1.013-1.013zm7.937 0h4.589a1.01 1.01 0 0 1 1.013 1.013v3.266a1.01 1.01 0 0 1-1.013 1.012h-4.589a1.01 1.01 0 0 1-1.013-1.012v-3.266a1.01 1.01 0 0 1 1.013-1.013zm7.938 0h4.588a1.01 1.01 0 0 1 1.013 1.013v3.266a1.01 1.01 0 0 1-1.013 1.012h-4.589a1.01 1.01 0 0 1-1.012-1.012v-3.266a1.01 1.01 0 0 1 1.012-1.013zm7.937 0h3.266a1.01 1.01 0 0 1 1.013 1.013v3.266a1.01 1.01 0 0 1-1.013 1.012h-3.266a1.01 1.01 0 0 1-1.013-1.012v-3.266a1.01 1.01 0 0 1 1.013-1.013zm3.969 6.614h4.588a1.01 1.01 0 0 1 1.013 1.013v3.266a1.01 1.01 0 0 1-1.013 1.013h-4.588a1.01 1.01 0 0 1-1.013-1.013v-3.266a1.01 1.01 0 0 1 1.013-1.013zm-7.938 0h4.589a1.01 1.01 0 0 1 1.013 1.013v3.266a1.01 1.01 0 0 1-1.013 1.013h-4.589a1.01 1.01 0 0 1-1.013-1.013v-3.266a1.01 1.01 0 0 1 1.013-1.013zm-23.812 0H109.9a1.01 1.01 0 0 1 1.013 1.013v3.266a1.01 1.01 0 0 1-1.013 1.013H89.438a1.01 1.01 0 0 1-1.013-1.013v-3.266a1.01 1.01 0 0 1 1.013-1.013z" transform="translate(532.773 -102.134) scale(4.97029)"/></g><g transform="translate(347.765 160.768) scale(4.26223)" style="display:inline;stroke-width:1.50077"><rect ry="11.642" rx="11.642" y="157.692" x="248.708" height="35.454" width="23.283" style="opacity:1;vector-effect:none;fill:#99c1f1;fill-opacity:1;stroke:none;stroke-width:2.38247;stroke-linecap:round;stroke-linejoin:miter;stroke-miterlimit:4;stroke-dasharray:none;stroke-dashoffset:0;stroke-opacity:1;marker:none;marker-start:none;marker-mid:none;marker-end:none;paint-order:normal"/><rect style="opacity:1;vector-effect:none;fill:#cee1f8;fill-opacity:1;stroke:none;stroke-width:6.35324;stroke-linecap:round;stroke-linejoin:miter;stroke-miterlimit:4;stroke-dasharray:none;stroke-dashoffset:0;stroke-opacity:1;marker:none;marker-start:none;marker-mid:none;marker-end:none;paint-order:normal" width="23.283" height="35.454" x="248.708" y="156.104" rx="11.642" ry="11.642"/><path style="fill:#89b7ef;fill-opacity:1;stroke:#99c1f1;stroke-width:.397077px;stroke-linecap:butt;stroke-linejoin:miter;stroke-opacity:1" d="M260.615 170.656v-14.552"/><rect style="opacity:1;vector-effect:none;fill:#1a5fb4;fill-opacity:1;stroke:none;stroke-width:6.35324;stroke-linecap:round;stroke-linejoin:miter;stroke-miterlimit:4;stroke-dasharray:none;stroke-dashoffset:0;stroke-opacity:1;marker:none;marker-start:none;marker-mid:none;marker-end:none;paint-order:normal" width="5.292" height="13.229" x="257.969" y="160.073" rx="2.646" ry="2.646"/><circle r="1.455" cy="162.003" cx="260.603" style="opacity:1;vector-effect:none;fill:#c0bfbc;fill-opacity:.102362;stroke:none;stroke-width:2.90278;stroke-linecap:round;stroke-linejoin:miter;stroke-miterlimit:4;stroke-dasharray:none;stroke-dashoffset:0;stroke-opacity:1;marker:none;marker-start:none;marker-mid:none;marker-end:none;paint-order:normal"/></g></svg>