<?xml version="1.0" encoding="UTF-8" standalone="no"?>
<svg
   width="16"
   height="16"
   version="1.1"
   id="svg14"
   sodipodi:docname="favicon.svg"
   inkscape:version="1.4 (e7c3feb100, 2024-10-09)"
   inkscape:export-filename="favicon.png"
   inkscape:export-xdpi="96"
   inkscape:export-ydpi="96"
   xmlns:inkscape="http://www.inkscape.org/namespaces/inkscape"
   xmlns:sodipodi="http://sodipodi.sourceforge.net/DTD/sodipodi-0.dtd"
   xmlns="http://www.w3.org/2000/svg"
   xmlns:svg="http://www.w3.org/2000/svg">
  <defs
     id="defs18" />
  <sodipodi:namedview
     id="namedview16"
     pagecolor="#505050"
     bordercolor="#ffffff"
     borderopacity="1"
     inkscape:pageshadow="0"
     inkscape:pageopacity="0"
     inkscape:pagecheckerboard="1"
     showgrid="false"
     inkscape:current-layer="g12"
     inkscape:showpageshadow="0"
     inkscape:deskcolor="#505050"
     inkscape:zoom="18.853461"
     inkscape:cx="9.0699527"
     inkscape:cy="9.573839"
     inkscape:window-width="1344"
     inkscape:window-height="1269"
     inkscape:window-x="26"
     inkscape:window-y="23"
     inkscape:window-maximized="0">
    <inkscape:grid
       type="xygrid"
       id="grid20"
       originx="0"
       originy="0"
       spacingy="1"
       spacingx="1"
       units="px" />
  </sodipodi:namedview>
  <g
     transform="translate(380 -506.52)"
     id="g12">
    <rect
       ry="16.875"
       rx="16.875"
       y="2409.281"
       x="4128.568"
       height="90"
       width="90"
       fill="#201a26"
       transform="matrix(.17778 0 0 .17778 -1113.968 78.203)"
       stroke-width="5.625"
       id="rect2"
       style="fill:#deddda;fill-opacity:1;font-variation-settings:normal;opacity:1;vector-effect:none;stroke-width:5.62498594;stroke-linecap:butt;stroke-linejoin:miter;stroke-miterlimit:4;stroke-dasharray:none;stroke-dashoffset:0;stroke-opacity:1;-inkscape-stroke:none;stop-color:#000000;stop-opacity:1" />
    <g
       id="g27"
       transform="matrix(0.09816139,0,0,0.09816139,-382.87485,503.98829)">
      <path
         id="path3-3"
         d="m 117.1896,34.540008 h 15.5516 L 174.448,89.32374 117.1896,79.780007 V 34.540008"
         style="fill:#6148a7;fill-opacity:1;fill-rule:nonzero;stroke:none;stroke-width:0.133333" />
      <path
         id="path4-6"
         d="m 117.1896,96.520673 50.5424,7.647867 6.716,-14.8448 -57.2584,-9.543733 v 16.740666"
         style="fill:#1d1832;fill-opacity:1;fill-rule:nonzero;stroke:none;stroke-width:0.133333" />
      <path
         id="path5-7"
         d="m 117.1896,111.71854 18.73306,8.7084 H 157.836 l 20.14666,12.01707 -10.25066,-28.27547 -50.5424,-7.647867 v 15.197867"
         style="fill:#6148a7;fill-opacity:1;fill-rule:nonzero;stroke:none;stroke-width:0.133333" />
      <path
         id="path6"
         d="m 73.088532,167.52374 44.101068,-55.8052 18.73306,8.7084 H 157.836 L 177.98266,132.44401 158.076,170.18 141.47733,178.81174 H 90.019731 l -16.931199,-11.288"
         style="fill:#1d1832;fill-opacity:1;fill-rule:nonzero;stroke:none;stroke-width:0.133333" />
      <path
         id="path7"
         d="m 117.1896,34.540008 h -16.6688 l -23.359335,33.887999 -11.474533,1.752 -30.326533,60.129733 13.524,37.29266 24.204133,-0.0787 44.101068,-55.8052 V 96.03934 79.780007 34.540008"
         style="fill:#9778c3;fill-opacity:1;fill-rule:nonzero;stroke:none;stroke-width:0.133333" />
      <path
         id="path8"
         d="m 48.884399,167.6024 18.269733,11.20934 h 22.865599 l -16.931199,-11.288 -24.204133,0.0787"
         style="fill:#6148a7;fill-opacity:1;fill-rule:nonzero;stroke:none;stroke-width:0.133333" />
      <path
         id="path9"
         d="m 79.440131,135.14254 c -2.207866,-0.10947 -4.276133,-0.612 -6.104666,-1.9604 -1.862,-1.37347 -3.976133,-1.6584 -6.206267,-1.1844 -1.0104,0.21453 -2.004666,0.5052 -3.016666,0.70933 -2.8256,0.56934 -4.785467,-1.32546 -5.511467,-3.2724 -0.704133,-1.88906 -0.309333,-3.72186 0.4344,-5.50826 1.028133,-2.46987 2.725467,-4.49747 4.3692,-6.55787 2.252133,-2.824 4.952667,-5.11667 8.1756,-6.76147 2.2124,-1.1292 4.550933,-1.91453 7.055733,-1.90466 4.2724,0.0177 7.305733,2.32346 8.7328,6.2224 0.904666,2.47186 0.8692,4.99893 0.4124,7.53493 -0.4708,2.61453 -1.0624,5.20773 -2.132267,7.65413 -0.609333,1.39427 -1.445333,2.65987 -2.588,3.69427 -1.025466,0.9292 -2.231733,1.376 -3.6208,1.3344"
         style="fill:#1d1832;fill-opacity:1;fill-rule:nonzero;stroke:none;stroke-width:0.133333" />
      <path
         id="path10"
         d="m 84.691198,88.99094 c -0.09533,2.8636 -0.583867,5.824 -2.4204,8.401066 -1.328133,1.864 -2.971333,3.336934 -5.259867,3.866664 -1.524533,0.35307 -3.055733,0.3568 -4.404133,-0.62866 -1.264133,-0.924004 -1.674,-2.306804 -1.733333,-3.754137 -0.243733,-5.953733 2.097333,-10.831866 6.385866,-14.8412 0.825067,-0.771333 1.804267,-1.311466 2.9828,-1.430666 1.187067,-0.1204 2.102667,0.314 2.753734,1.266666 0.872933,1.278134 1.227066,2.757734 1.4796,4.256667 0.148533,0.876666 0.216266,1.765733 0.215733,2.8636"
         style="fill:#1d1832;fill-opacity:1;fill-rule:nonzero;stroke:none;stroke-width:0.133333" />
      <path
         id="path11"
         d="m 101.9448,88.167473 c -0.008,2.9792 -0.9432,5.709467 -2.342669,8.289067 -1.25,2.304133 -2.823467,4.3656 -4.942267,5.95947 -1.512,1.13746 -3.161466,1.7604 -5.093733,1.36506 -2.0744,-0.42453 -3.4536,-1.97866 -3.638,-4.06413 -0.2052,-2.323867 0.518267,-4.408267 1.673467,-6.3468 2.139066,-3.5896 4.960933,-6.548534 8.490133,-8.8068 0.8312,-0.531733 1.715067,-0.945333 2.738933,-0.95 1.360536,-0.0063 2.289596,0.6344 2.766666,1.919333 0.31627,0.852 0.38387,1.734267 0.34747,2.6348"
         style="fill:#1d1832;fill-opacity:1;fill-rule:nonzero;stroke:none;stroke-width:0.133333" />
      <path
         id="path12"
         d="m 68.243732,104.22734 c -0.01827,2.47813 -0.554667,4.8688 -2.215067,6.872 -1.891733,2.28173 -4.328667,3.46507 -7.320266,3.26187 -1.623467,-0.1104 -2.680267,-1.1244 -3.238667,-2.59 -0.784267,-2.0584 -0.763467,-4.20054 -0.3208,-6.3204 0.6084,-2.91454 1.821333,-5.582804 3.6,-7.974404 0.586,-0.7876 1.291733,-1.490133 2.191733,-1.9276 1.5588,-0.757866 3.116133,-0.316133 4.5072,1.153067 1.988533,2.100533 2.81,4.618267 2.795867,7.525467"
         style="fill:#1d1832;fill-opacity:1;fill-rule:nonzero;stroke:none;stroke-width:0.133333" />
      <path
         id="path13"
         d="m 106.32133,104.81027 c 0.0193,0.77387 -0.11973,1.53067 -0.32187,2.26814 -0.78746,2.8756 -1.874,5.61413 -3.788,7.95266 -1.38546,1.6932 -2.895329,3.2572 -4.877062,4.2588 -3.268267,1.65267 -6.073467,0.0333 -7.1224,-2.48013 -0.610934,-1.46307 -0.319867,-2.94907 0.2052,-4.38387 0.602533,-1.648 1.613466,-3.05 2.740666,-4.3704 1.803067,-2.11186 3.911467,-3.84426 6.4328,-5.03853 1.047336,-0.49573 2.118666,-0.93173 3.272936,-1.13333 2.21453,-0.3864 3.46506,0.66613 3.45773,2.92666"
         style="fill:#1d1832;fill-opacity:1;fill-rule:nonzero;stroke:none;stroke-width:0.133333" />
    </g>
  </g>
</svg>
