<?xml version="1.0" encoding="UTF-8" standalone="no"?>
<svg
   width="160"
   height="32"
   version="1.1"
   id="svg4"
   sodipodi:docname="logo.svg"
   inkscape:version="1.4 (e7c3feb100, 2024-10-09)"
   xmlns:inkscape="http://www.inkscape.org/namespaces/inkscape"
   xmlns:sodipodi="http://sodipodi.sourceforge.net/DTD/sodipodi-0.dtd"
   xmlns="http://www.w3.org/2000/svg"
   xmlns:svg="http://www.w3.org/2000/svg">
  <defs
     id="defs4" />
  <sodipodi:namedview
     id="namedview4"
     pagecolor="#ffffff"
     bordercolor="#000000"
     borderopacity="0.25"
     inkscape:showpageshadow="2"
     inkscape:pageopacity="0.0"
     inkscape:pagecheckerboard="0"
     inkscape:deskcolor="#d1d1d1"
     inkscape:zoom="7.7609375"
     inkscape:cx="15.655325"
     inkscape:cy="37.108919"
     inkscape:window-width="5120"
     inkscape:window-height="1371"
     inkscape:window-x="0"
     inkscape:window-y="0"
     inkscape:window-maximized="1"
     inkscape:current-layer="svg4" />
  <path
     d="m 15.06708,-0.01178944 h 2.554 L 24.917736,9.5726528 15.06708,7.9303059 v -7.94209534 m 0,10.95336544 8.970544,1.350898 0.993123,-2.194962 -9.959882,-1.6582083 -0.0038,2.5022723 m 0.0023,2.795522 3.180515,1.482654 3.961675,-0.0023 3.427444,2.041398 -1.632254,-4.452288 -8.939723,-1.356667 0.0023,2.287246"
     id="path1"
     style="stroke-width:0.18024" />
  <path
     d="m 7.1963594,23.856673 7.6948056,-9.647166 3.247385,1.505905 3.938244,-0.0014 3.562263,2.133141 -3.451957,6.58615 -2.991623,1.555651 H 10.212856 L 7.1965396,23.856673 m -4.2825024,0.361381 2.8870843,1.770858 h 3.5355879 l -2.5806764,-1.78726 -3.8419958,0.01622 m 9.9279798,-11.56492 c 0.0036,0.139506 -0.02145,0.275768 -0.05804,0.408785 -0.141669,0.51837 -0.33759,1.012047 -0.68275,1.433448 -0.249632,0.305147 -0.521614,0.587042 -0.87903,0.767643 -0.589024,0.297936 -1.094598,0.0059 -1.2838495,-0.446996 -0.1099464,-0.263691 -0.057316,-0.531708 0.037129,-0.790172 0.1085045,-0.297035 0.2907275,-0.549732 0.4940385,-0.787649 0.324972,-0.380666 0.704738,-0.693022 1.159303,-0.908409 0.188892,-0.08922 0.382109,-0.167623 0.589926,-0.204032 0.399232,-0.06975 0.624712,0.12004 0.62327,0.527382 z m -6.8631788,-0.10508 c -0.00306,0.446635 -0.099853,0.877769 -0.3990514,1.23861 C 5.2387727,14.197791 4.7993476,14.411015 4.26043,14.374427 3.9677202,14.3546 3.7770263,14.171837 3.6766326,13.907605 3.5353245,13.536671 3.5389293,13.150597 3.6187756,12.768488 a 3.6336384,3.6336384 0 0 1 0.648864,-1.437414 c 0.1056206,-0.141849 0.2328701,-0.268557 0.3950861,-0.347322 0.2808139,-0.136622 0.5616278,-0.05696 0.8121614,0.207816 0.3586776,0.378504 0.5066547,0.832349 0.5039511,1.356306 z M 12.053287,9.6532201 c -0.0014,0.5371149 -0.169967,1.0291699 -0.422303,1.4941899 -0.2253,0.415273 -0.508817,0.786747 -0.890926,1.07405 -0.272523,0.204933 -0.569739,0.317222 -0.9179623,0.246027 -0.373998,-0.07642 -0.6223687,-0.356695 -0.6555329,-0.732495 -0.037129,-0.418878 0.093184,-0.794498 0.3015415,-1.143983 0.3855334,-0.6470618 0.8939907,-1.1802117 1.5302377,-1.5873739 0.149779,-0.095707 0.309112,-0.1703268 0.493858,-0.171228 0.245126,-0.00108 0.412569,0.1144524 0.498543,0.3460608 0.05696,0.1535645 0.06903,0.3125362 0.06254,0.4747522 z M 8.9434257,9.8017378 C 8.9264831,10.317945 8.8381655,10.851456 8.5072449,11.315934 8.2678862,11.651901 7.9715716,11.917395 7.5591825,12.012922 7.2844967,12.076547 7.008369,12.077088 6.7654055,11.899551 6.5375822,11.733009 6.4636838,11.483738 6.4530496,11.22293 6.409071,10.149781 6.8310129,9.2705706 7.603882,8.5479884 7.7527602,8.4088431 7.929035,8.3115135 8.1415379,8.290065 8.355663,8.268436 8.5205826,8.34666 8.6377386,8.518429 c 0.1575298,0.2303468 0.2213348,0.4969217 0.2667552,0.7671015 0.026676,0.1580705 0.038932,0.3183038 0.038932,0.5162073 z m -0.94626,8.3184362 C 7.5991958,18.100348 7.2264594,18.009867 6.8966202,17.766904 6.5611936,17.519254 6.179986,17.467706 5.7780508,17.55332 5.5960084,17.591891 5.4168498,17.644341 5.234447,17.68129 4.7250887,17.783666 4.3718183,17.442292 4.2409641,17.091364 4.1140751,16.750711 4.1850897,16.420511 4.3191882,16.098422 4.504475,15.653229 4.8105225,15.287883 5.106837,14.916589 5.5127375,14.407591 5.9995658,13.9943 6.5801188,13.697806 c 0.3990514,-0.203672 0.8204525,-0.34498 1.2721339,-0.343358 0.7699853,0.0032 1.3166532,0.418878 1.5738557,1.121634 0.1631172,0.445553 0.1566286,0.90102 0.074439,1.358108 -0.085073,0.471148 -0.1915951,0.93851 -0.3844519,1.379557 -0.1099464,0.251255 -0.260627,0.479439 -0.4664611,0.665807 -0.1849263,0.167623 -0.4021155,0.24801 -0.6524687,0.24062 z M 14.546727,-0.01178944 H 11.814649 L 7.604603,6.0954627 5.5365292,6.4112432 0.07129192,17.247993 2.4156736,23.713202 6.6743843,23.700224 14.567995,13.810456 14.546727,-0.01178944"
     id="path2"
     style="stroke-width:0.18024" />
  <path
     d="m 192.565,262.8 q -3.945,0 -6.926,-1.703 -2.982,-1.722 -4.649,-4.89 -1.667,-3.166 -1.667,-7.518 0,-4.52 1.76,-7.686 1.76,-3.186 4.74,-4.852 2.983,-1.686 6.668,-1.686 3.167,0 5.741,1.204 2.575,1.185 4.204,3.315 1.649,2.111 1.982,4.852 h -6.612 q -0.463,-1.722 -1.815,-2.666 -1.333,-0.964 -3.389,-0.964 -3.019,0 -4.815,2.204 -1.778,2.186 -1.778,6.186 0,4.037 1.741,6.26 1.74,2.204 4.87,2.204 2.742,0 4.223,-1.315 1.5,-1.315 1.556,-3.556 h -5.519 v -4.797 h 11.834 v 3.63 q 0,3.686 -1.574,6.334 -1.556,2.63 -4.296,4.037 -2.741,1.408 -6.279,1.408 z m 15.909,-0.37 v -20.705 h 6.278 v 3.778 h 0.222 q 0.556,-2.037 1.834,-3.037 1.296,-1 3,-1 0.945,0 1.834,0.222 v 5.63 q -0.463,-0.167 -1.223,-0.24 -0.74,-0.093 -1.333,-0.093 -1.796,0 -2.982,1.148 -1.167,1.148 -1.167,3 v 11.298 z m 20.983,0.37 q -2.982,0 -4.908,-1.518 -1.907,-1.518 -1.907,-4.593 0,-2.296 1.055,-3.648 1.056,-1.352 2.797,-2 1.76,-0.648 3.852,-0.834 2.63,-0.222 3.76,-0.537 1.148,-0.333 1.148,-1.296 V 248.3 q 0,-1.074 -0.76,-1.649 -0.74,-0.592 -2.055,-0.592 -1.352,0 -2.222,0.574 -0.871,0.574 -1.13,1.556 l -5.853,-0.76 q 0.612,-2.648 2.982,-4.296 2.39,-1.667 6.278,-1.667 2.575,0 4.649,0.796 2.093,0.797 3.315,2.352 1.24,1.537 1.24,3.76 v 14.057 h -6.074 v -2.908 h -0.166 q -1.723,3.278 -6,3.278 z m 1.963,-4.277 q 1.63,0 2.76,-0.963 1.13,-0.963 1.13,-2.5 v -1.982 q -0.556,0.296 -1.612,0.5 -1.055,0.204 -1.963,0.352 -2.982,0.444 -2.982,2.463 0,1.037 0.741,1.593 0.76,0.537 1.926,0.537 z m 21.02,-7.908 v 11.816 h -6.463 v -20.706 h 6.075 l 0.11,4.463 q 0.816,-2.148 2.39,-3.426 1.574,-1.296 4.093,-1.296 3.24,0 5.204,2.13 1.963,2.13 1.963,5.648 v 13.187 h -6.463 v -11.927 q 0,-1.741 -0.89,-2.723 -0.888,-1 -2.481,-1 -1.574,0 -2.556,1.019 -0.981,1 -0.981,2.815 z m 17.632,11.816 v -20.706 h 6.463 v 20.706 z m 3.222,-23.132 q -1.37,0 -2.352,-0.907 -0.981,-0.908 -0.981,-2.204 0,-1.297 0.981,-2.204 0.982,-0.908 2.352,-0.908 1.39,0 2.37,0.908 0.982,0.907 0.982,2.204 0,1.296 -0.981,2.204 -0.982,0.907 -2.37,0.907 z m 18.687,2.426 v 4.797 h -3.723 v 9.575 q 0,1.61 1.649,1.61 0.333,0 0.926,-0.073 0.61,-0.093 0.87,-0.148 l 0.833,4.704 q -1.092,0.315 -2.11,0.426 -1.02,0.11 -1.927,0.11 -3.296,0 -5,-1.536 -1.704,-1.556 -1.704,-4.52 v -10.148 h -2.741 v -4.797 h 2.74 V 236.8 h 6.464 v 4.926 z m 12.594,21.094 q -4.871,0 -7.668,-2.833 -2.778,-2.852 -2.778,-7.834 0,-3.186 1.241,-5.593 1.26,-2.408 3.556,-3.741 2.296,-1.352 5.408,-1.352 2.907,0 5.148,1.222 2.26,1.204 3.538,3.575 1.296,2.352 1.296,5.76 v 1.629 h -13.834 q 0.092,2.241 1.222,3.37 1.148,1.112 2.982,1.112 1.296,0 2.24,-0.537 0.945,-0.556 1.334,-1.593 l 5.76,0.945 q -0.778,2.685 -3.241,4.278 -2.445,1.592 -6.204,1.592 z m -4.056,-12.927 h 7.667 q -0.185,-1.759 -1.148,-2.74 -0.963,-1 -2.649,-1 -1.704,0 -2.704,1.018 -0.981,1 -1.166,2.722 z m 21.742,12.927 q -1.481,0 -2.5,-0.981 -1,-1 -1,-2.463 0,-1.482 1,-2.463 1.019,-1 2.5,-1 1.482,0 2.482,1 1.018,0.981 1.018,2.463 0,1.463 -1.018,2.463 -1,0.981 -2.482,0.981 z m 18.428,0 q -3.241,0 -5.575,-1.333 -2.333,-1.352 -3.593,-3.741 -1.24,-2.408 -1.24,-5.593 0,-3.186 1.24,-5.593 1.26,-2.408 3.593,-3.741 2.334,-1.352 5.575,-1.352 3.963,0 6.5,1.981 2.556,1.982 3.037,5.371 l -5.963,1 q -0.315,-1.63 -1.204,-2.518 -0.87,-0.89 -2.296,-0.89 -1.852,0 -2.87,1.52 -1.02,1.5 -1.02,4.185 0,2.667 1.02,4.222 1.018,1.538 2.87,1.538 1.426,0 2.315,-0.926 0.907,-0.926 1.204,-2.593 l 5.963,0.963 q -0.482,3.482 -3.019,5.5 -2.537,2 -6.537,2 z m 22.576,0 q -3.241,0 -5.575,-1.333 -2.333,-1.352 -3.593,-3.741 -1.24,-2.408 -1.24,-5.593 0,-3.186 1.24,-5.593 1.26,-2.408 3.593,-3.741 2.334,-1.352 5.575,-1.352 3.24,0 5.556,1.352 2.333,1.333 3.574,3.74 1.26,2.408 1.26,5.594 0,3.185 -1.26,5.593 -1.24,2.39 -3.574,3.741 -2.315,1.333 -5.556,1.333 z m 0,-4.944 q 1.852,0 2.833,-1.575 0.982,-1.592 0.982,-4.185 0,-2.593 -0.982,-4.149 -0.981,-1.555 -2.833,-1.555 -1.852,0 -2.834,1.555 -0.982,1.556 -0.982,4.149 0,2.593 0.982,4.185 0.982,1.575 2.834,1.575 z m 21.372,4.852 q -2.297,0 -4.186,-1.185 -1.889,-1.204 -3,-3.556 -1.111,-2.37 -1.111,-5.89 0,-3.63 1.148,-5.982 1.167,-2.352 3.037,-3.5 1.89,-1.148 4.056,-1.148 1.648,0 2.815,0.574 1.167,0.556 1.908,1.445 0.76,0.87 1.148,1.796 h 0.148 v -10.445 h 6.445 v 27.595 h -6.37 v -3.353 h -0.223 q -0.611,1.408 -2.037,2.538 -1.408,1.11 -3.778,1.11 z m 2.204,-5.038 q 1.833,0 2.87,-1.518 1.037,-1.537 1.037,-4.075 0,-2.574 -1.037,-4.074 -1.018,-1.5 -2.87,-1.5 -1.87,0 -2.871,1.537 -0.982,1.519 -0.982,4.037 0,2.52 0.982,4.056 1,1.537 2.87,1.537 z m 24.131,5.13 q -4.87,0 -7.667,-2.833 -2.778,-2.852 -2.778,-7.834 0,-3.186 1.24,-5.593 1.26,-2.408 3.557,-3.741 2.296,-1.352 5.407,-1.352 2.908,0 5.149,1.222 2.26,1.204 3.537,3.575 1.297,2.352 1.297,5.76 v 1.629 h -13.835 q 0.093,2.241 1.223,3.37 1.148,1.112 2.981,1.112 1.297,0 2.241,-0.537 0.945,-0.556 1.334,-1.593 l 5.76,0.945 q -0.778,2.685 -3.242,4.278 -2.444,1.592 -6.204,1.592 z m -4.056,-12.927 h 7.668 q -0.186,-1.759 -1.149,-2.74 -0.963,-1 -2.648,-1 -1.704,0 -2.704,1.018 -0.981,1 -1.167,2.722 z"
     aria-label="Granite.code"
     style="font-weight:800;font-size:10.0354px;line-height:1.25;font-family:Inter;-inkscape-font-specification:'Inter, Ultra-Bold';text-align:center;letter-spacing:0;word-spacing:0;text-anchor:middle;stroke-width:5.17213"
     id="path3" />
  <path
     d="m 39.376,20.833 q -1.968,0 -3.456,-0.85 -1.488,-0.86 -2.32,-2.44 -0.832,-1.58 -0.832,-3.752 0,-2.255 0.878,-3.835 0.878,-1.59 2.366,-2.422 1.488,-0.84 3.327,-0.84 1.58,0 2.865,0.6 1.285,0.591 2.098,1.654 0.823,1.054 0.99,2.422 h -3.3 q -0.231,-0.86 -0.906,-1.331 -0.665,-0.48 -1.691,-0.48 -1.507,0 -2.403,1.099 -0.887,1.09 -0.887,3.087 0,2.014 0.868,3.124 0.87,1.1 2.431,1.1 1.368,0 2.107,-0.657 0.749,-0.656 0.777,-1.774 h -2.755 v -2.394 h 5.906 v 1.811 q 0,1.84 -0.785,3.161 -0.777,1.313 -2.145,2.015 -1.367,0.702 -3.133,0.702 z m 7.94,-0.185 V 10.316 h 3.132 v 1.885 h 0.111 q 0.277,-1.016 0.915,-1.515 0.647,-0.5 1.497,-0.5 0.472,0 0.915,0.111 v 2.81 q -0.23,-0.083 -0.61,-0.12 -0.37,-0.046 -0.665,-0.046 -0.897,0 -1.488,0.573 -0.582,0.573 -0.582,1.497 v 5.637 z m 10.47,0.185 q -1.488,0 -2.449,-0.758 -0.952,-0.757 -0.952,-2.292 0,-1.146 0.527,-1.82 0.527,-0.675 1.396,-0.998 0.878,-0.324 1.922,-0.416 1.312,-0.111 1.876,-0.268 0.573,-0.167 0.573,-0.647 v -0.037 q 0,-0.536 -0.379,-0.823 -0.37,-0.295 -1.026,-0.295 -0.674,0 -1.109,0.286 -0.434,0.287 -0.563,0.776 l -2.921,-0.379 q 0.305,-1.321 1.488,-2.144 1.192,-0.831 3.133,-0.831 1.285,0 2.32,0.397 1.044,0.397 1.654,1.174 0.62,0.767 0.62,1.876 v 7.014 h -3.032 v -1.45 h -0.083 q -0.86,1.635 -2.995,1.635 z m 0.98,-2.135 q 0.813,0 1.377,-0.48 0.564,-0.48 0.564,-1.248 v -0.989 q -0.277,0.148 -0.804,0.25 -0.527,0.101 -0.98,0.175 -1.488,0.222 -1.488,1.23 0,0.517 0.37,0.794 0.379,0.268 0.961,0.268 z m 10.49,-3.946 v 5.896 H 66.03 V 10.316 h 3.032 l 0.055,2.227 q 0.407,-1.072 1.192,-1.71 0.786,-0.646 2.043,-0.646 1.617,0 2.597,1.062 0.98,1.063 0.98,2.82 v 6.58 h -3.226 v -5.952 q 0,-0.87 -0.444,-1.359 -0.443,-0.499 -1.238,-0.499 -0.786,0 -1.275,0.508 -0.49,0.5 -0.49,1.405 z m 8.798,5.896 V 10.316 h 3.225 V 20.648 Z M 79.662,9.105 q -0.684,0 -1.174,-0.453 -0.49,-0.452 -0.49,-1.1 0,-0.646 0.49,-1.1 Q 78.978,6 79.662,6 q 0.693,0 1.183,0.453 0.49,0.453 0.49,1.1 0,0.647 -0.49,1.1 -0.49,0.452 -1.183,0.452 z m 9.325,1.211 V 12.71 H 87.13 v 4.778 q 0,0.804 0.822,0.804 0.166,0 0.462,-0.037 0.305,-0.046 0.435,-0.074 l 0.415,2.347 q -0.545,0.157 -1.053,0.213 -0.508,0.055 -0.961,0.055 -1.645,0 -2.496,-0.767 -0.85,-0.776 -0.85,-2.255 V 12.71 h -1.368 v -2.394 h 1.368 V 7.858 h 3.226 v 2.458 z m 6.285,10.527 q -2.43,0 -3.826,-1.414 -1.387,-1.424 -1.387,-3.91 0,-1.59 0.62,-2.79 0.628,-1.202 1.774,-1.868 1.146,-0.674 2.699,-0.674 1.45,0 2.569,0.61 1.127,0.6 1.765,1.783 0.647,1.174 0.647,2.874 v 0.814 H 93.23 q 0.047,1.118 0.61,1.682 0.573,0.554 1.488,0.554 0.647,0 1.118,-0.268 0.472,-0.277 0.666,-0.794 l 2.874,0.47 q -0.388,1.34 -1.617,2.136 -1.22,0.795 -3.096,0.795 z m -2.024,-6.451 h 3.826 q -0.092,-0.878 -0.573,-1.368 -0.48,-0.5 -1.322,-0.5 -0.85,0 -1.349,0.51 -0.49,0.498 -0.582,1.358 z m 10.85,6.45 q -0.74,0 -1.248,-0.49 -0.499,-0.498 -0.499,-1.228 0,-0.74 0.5,-1.23 0.507,-0.499 1.247,-0.499 0.74,0 1.238,0.5 0.509,0.49 0.509,1.229 0,0.73 -0.509,1.229 -0.499,0.49 -1.238,0.49 z m 9.196,0 q -1.618,0 -2.782,-0.665 -1.165,-0.675 -1.793,-1.867 -0.62,-1.201 -0.62,-2.79 0,-1.59 0.62,-2.792 0.628,-1.201 1.793,-1.867 1.164,-0.674 2.782,-0.674 1.977,0 3.244,0.988 1.275,0.99 1.515,2.68 l -2.976,0.5 q -0.157,-0.814 -0.6,-1.257 -0.435,-0.444 -1.146,-0.444 -0.925,0 -1.433,0.758 -0.508,0.749 -0.508,2.089 0,1.33 0.508,2.107 0.508,0.767 1.433,0.767 0.711,0 1.155,-0.462 0.453,-0.462 0.6,-1.294 l 2.976,0.48 q -0.24,1.738 -1.506,2.745 -1.266,0.999 -3.262,0.999 z m 11.266,0 q -1.618,0 -2.782,-0.665 -1.165,-0.675 -1.793,-1.867 -0.62,-1.201 -0.62,-2.79 0,-1.59 0.62,-2.792 0.628,-1.201 1.793,-1.867 1.164,-0.674 2.782,-0.674 1.617,0 2.772,0.674 1.165,0.666 1.784,1.867 0.628,1.202 0.628,2.791 0,1.59 -0.628,2.791 -0.62,1.192 -1.784,1.867 -1.155,0.666 -2.772,0.666 z m 0,-2.467 q 0.924,0 1.414,-0.786 0.49,-0.794 0.49,-2.088 0,-1.294 -0.49,-2.07 -0.49,-0.777 -1.414,-0.777 -0.925,0 -1.414,0.777 -0.49,0.776 -0.49,2.07 0,1.294 0.49,2.088 0.49,0.786 1.414,0.786 z m 10.665,2.421 q -1.146,0 -2.089,-0.591 -0.943,-0.6 -1.497,-1.775 -0.555,-1.183 -0.555,-2.939 0,-1.811 0.573,-2.985 0.583,-1.173 1.516,-1.746 0.943,-0.573 2.024,-0.573 0.823,0 1.405,0.286 0.582,0.277 0.952,0.72 0.379,0.435 0.573,0.897 h 0.074 V 6.878 h 3.216 v 13.77 h -3.18 v -1.672 h -0.11 q -0.305,0.702 -1.017,1.266 -0.702,0.554 -1.885,0.554 z m 1.1,-2.513 q 0.915,0 1.432,-0.758 0.518,-0.767 0.518,-2.034 0,-1.284 -0.518,-2.033 -0.508,-0.748 -1.432,-0.748 -0.934,0 -1.433,0.767 -0.49,0.758 -0.49,2.014 0,1.257 0.49,2.024 0.5,0.768 1.433,0.768 z m 12.042,2.56 q -2.43,0 -3.826,-1.414 -1.387,-1.424 -1.387,-3.91 0,-1.59 0.62,-2.79 0.628,-1.202 1.774,-1.868 1.146,-0.674 2.699,-0.674 1.45,0 2.569,0.61 1.128,0.6 1.765,1.783 0.647,1.174 0.647,2.874 v 0.814 h -6.904 q 0.047,1.118 0.61,1.682 0.573,0.554 1.488,0.554 0.647,0 1.119,-0.268 0.471,-0.277 0.665,-0.794 l 2.874,0.47 q -0.388,1.34 -1.617,2.136 -1.22,0.795 -3.096,0.795 z m -2.024,-6.451 h 3.826 q -0.092,-0.878 -0.573,-1.368 -0.48,-0.5 -1.322,-0.5 -0.85,0 -1.349,0.51 -0.49,0.498 -0.582,1.358 z"
     aria-label="Granite.code"
     style="font-weight:800;font-size:10.0354px;line-height:1.25;font-family:Inter;-inkscape-font-specification:'Inter, Ultra-Bold';text-align:center;letter-spacing:0;word-spacing:0;text-anchor:middle;stroke-width:2.58102"
     id="path4" />
  <style
     id="style4">
 path, g { fill: #000000; }
  @media (prefers-color-scheme: dark) { path, g { fill: #ffffff; }
  }
 </style>
</svg>
